<svg aria-hidden="true" style="position: absolute; width: 0; height: 0; overflow: hidden;" version="1.1" xmlns="http://www.w3.org/2000/svg" xmlns:xlink="http://www.w3.org/1999/xlink">
    <defs>
        <symbol id="icon-delivery" viewBox="0 0 24 24"><path d="M18.984 17.016q0.422 0 0.727-0.305t0.305-0.727-0.305-0.703-0.727-0.281-0.703 0.281-0.281 0.703 0.281 0.727 0.703 0.305zM18.984 12.984q1.219 0 2.109 0.891t0.891 2.109-0.891 2.109-2.109 0.891-2.109-0.891-0.891-2.109 0.891-2.109 2.109-0.891zM5.016 6h4.969v2.016h-4.969v-2.016zM6.984 17.016q0.422 0 0.727-0.305t0.305-0.727h-2.016q0 0.422 0.281 0.727t0.703 0.305zM18.984 6.984v3.375l-4.5 5.625h-4.5q0 1.219-0.891 2.109t-2.109 0.891-2.109-0.891-0.891-2.109h-1.969v-3q0-1.641 1.172-2.813t2.813-1.172h3.984v5.016h3.516l3.516-4.359v-2.672h-3v-1.969h3q0.797 0 1.383 0.586t0.586 1.383z"></path></symbol>
        <symbol id="icon-man" viewBox="0 0 32 32"><path d="M16 16c4.418 0 8-3.582 8-8s-3.582-8-8-8v0c-4.418 0-8 3.582-8 8s3.582 8 8 8v0zM16 20c-5.339 0-16 2.68-16 8v2c0 1.099 0.901 2 2 2h28c1.099 0 2-0.901 2-2v-2c0-5.32-10.661-8-16-8z"></path></symbol>
        <symbol id="icon-phone-2" viewBox="0 0 32 32"><path d="M24.882 19.774l-3.268-0.373c-0.090-0.011-0.194-0.018-0.3-0.018-0.707 0-1.347 0.287-1.81 0.75l-2.368 2.368c-3.669-1.894-6.585-4.81-8.427-8.372l-0.051-0.108 2.382-2.377c0.463-0.463 0.75-1.103 0.75-1.81 0-0.106-0.006-0.21-0.019-0.312l0.001 0.012-0.373-3.243c-0.155-1.287-1.24-2.276-2.557-2.276-0.001 0-0.002 0-0.003 0h-2.226c-1.454 0-2.663 1.209-2.574 2.661 0.683 10.987 9.47 19.762 20.444 20.444 1.452 0.089 2.663-1.12 2.663-2.574v-2.226c0-0.004 0-0.008 0-0.012 0-1.308-0.985-2.386-2.253-2.532l-0.012-0.001z"></path></symbol>
        <symbol id="icon-telegram-1-2" viewBox="0 0 40 32"><path d="M16.206 20.75l-0.636 8.34c0.908 0 1.302-0.366 1.774-0.802l4.26-3.8 8.83 6.034c1.62 0.84 2.76 0.398 3.196-1.39l5.796-25.346h0.002c0.514-2.236-0.866-3.108-2.444-2.56l-34.064 12.172c-2.324 0.84-2.29 2.052-0.396 2.6l8.71 2.528 20.23-11.814c0.952-0.588 1.816-0.264 1.104 0.326l-16.362 13.712z"></path></symbol>
        <symbol id="icon-Facebook" viewBox="0 0 16 32"><path d="M14.266 15.97h-4.176v15.39h-6.328v-15.392h-3.008v-5.408h3.008v-3.498c0-2.504 1.184-6.422 6.384-6.422l4.688 0.019v5.25h-3.402c-0.557 0-1.342 0.282-1.342 1.475v3.184h4.73l-0.554 5.4z"></path></symbol>
        <symbol id="icon-VectorGitHub" viewBox="0 0 32 32"><path d="M16 0.941c-8.272 0-15.059 6.789-15.059 15.059 0 7.059 4.954 13.47 11.53 15.059v-4.982c-0.651 0.144-1.251 0.147-1.915-0.048-0.89-0.264-1.613-0.856-2.149-1.76-0.342-0.576-0.949-1.203-1.581-1.157l-0.155-1.758c1.368-0.117 2.55 0.834 3.253 2.014 0.312 0.525 0.672 0.832 1.133 0.968 0.445 0.131 0.923 0.069 1.482-0.128 0.139-1.117 0.651-1.536 1.037-2.123-3.922-0.586-5.485-2.667-6.106-4.309-0.822-2.181-0.381-4.906 1.072-6.627 0.029-0.032 0.080-0.122 0.061-0.182-0.667-2.014 0.144-3.68 0.176-3.856 0.768 0.227 0.893-0.229 3.341 1.258l0.422 0.254c0.176 0.106 0.122 0.045 0.299 0.032 0.943-0.266 2.029-0.428 3.15-0.445l0.010-0c1.147 0.018 2.247 0.183 3.294 0.478l-0.090-0.022 0.138 0.014c-0.013-0.002 0.037-0.010 0.12-0.059 3.056-1.851 2.947-1.246 3.766-1.512 0.030 0.176 0.832 1.869 0.171 3.856-0.088 0.275 2.651 2.784 1.133 6.811-0.621 1.643-2.184 3.723-6.106 4.309 0.502 0.768 1.107 1.174 1.104 2.755v6.219c6.576-1.589 11.53-8 11.53-15.059 0-8.272-6.787-15.059-15.059-15.059z"></path></symbol>
        <symbol id="icon-close-modal" viewBox="0 0 32 32"><path stroke="var(--color2, #D41443)" stroke-width="2" d="M2.519 2l26.963 28M2 29.481L30 2.518"/></symbol>
        <symbol id="arrow-right" viewBox="0 0 32 32"><path d="M16.8 14c0.88 1.040 0.56 1.2-1.92 1.2-1.6 0-2.88 0.32-2.88 0.8 0 0.4 1.28 0.8 2.88 0.8 2.48 0 2.8 0.16 1.92 1.2-1.52 1.84 0.32 1.44 2-0.4 1.36-1.52 1.36-1.68 0-3.2-1.68-1.84-3.52-2.24-2-0.4z"></path></symbol>
        <symbol id="foodtruck" viewBox="0 0 46 32"><path d="M9.265 4.59v0c-0.006 0-0.013 0-0.020 0 0.006-0.001 0.014 0 0.020 0z"></path><path d="M9.265 6.358c0.008 0 0.015 0 0.023 0v0c-0.008 0.001-0.015 0-0.023 0v0z"></path><path d="M9.265 6.358c-0.006 0-0.013 0-0.020 0 0.006 0 0.014 0 0.020 0v0z"></path><path d="M42.095 19.75c0.356-0.121 0.612-0.456 0.612-0.852s-0.257-0.731-0.612-0.852v1.704z"></path><path d="M42.089 22.077v-2.33c-0.353-0.122-0.606-0.456-0.606-0.85s0.254-0.728 0.606-0.85v-0.977l-3.651-2.033-3.831-7.154-0.156-1.182h-30.707v15.377h-1.040v2.735h6.323c0.354 1.493 1.694 2.606 3.295 2.606s2.941-1.112 3.295-2.606h17.923c0.354 1.493 1.694 2.606 3.295 2.606s2.941-1.112 3.295-2.606h2.999v-2.735h-1.040zM24.085 10.72v-1.821h2.095v1.821c0 0.579-0.469 1.048-1.048 1.048s-1.048-0.469-1.048-1.048c0 0 0 0 0 0zM19.883 8.899h2.095v1.821c0 0.579-0.469 1.048-1.048 1.048s-1.048-0.469-1.048-1.048v-1.821zM15.671 8.899h2.095v1.821c0 0.579-0.469 1.048-1.048 1.048s-1.048-0.469-1.048-1.048v-1.821zM11.458 8.899h2.095v1.821c0 0.579-0.469 1.048-1.048 1.048s-1.048-0.469-1.048-1.048v-1.821zM7.246 8.899h2.095v1.821c0 0.579-0.469 1.048-1.048 1.048s-1.048-0.469-1.048-1.048v-1.821zM7.173 11.691c0.273 0.314 0.673 0.513 1.12 0.513 0.411 0 0.784-0.169 1.053-0.439 0.269 0.272 0.641 0.439 1.053 0.439s0.784-0.169 1.053-0.439c0.269 0.272 0.641 0.439 1.053 0.439s0.784-0.169 1.053-0.439c0.269 0.272 0.641 0.439 1.053 0.439s0.784-0.169 1.053-0.439c0.269 0.272 0.641 0.439 1.053 0.439s0.784-0.169 1.053-0.439c0.269 0.272 0.641 0.439 1.053 0.439s0.784-0.169 1.053-0.439c0.269 0.272 0.641 0.439 1.053 0.439s0.784-0.169 1.053-0.439c0.269 0.272 0.641 0.439 1.053 0.439 0.409 0 0.78-0.166 1.048-0.434 0.269 0.268 0.64 0.434 1.048 0.434 0.447 0 0.847-0.199 1.12-0.513v5.737h-1.12v-2.246h-0.199v-0.3h-0.194l-0.107-0.382c-0.018-0.065-0.071-0.065-0.089 0l-0.107 0.382h-0.194v0.3h-0.199v2.246h-0.226v-2.246h-0.199v-0.3h-0.194l-0.107-0.382c-0.018-0.065-0.071-0.065-0.089 0l-0.107 0.382h-0.194v0.3h-0.199v2.246h-2.217l0.159-1.018h-0.38c0-0.438-0.354-0.792-0.792-0.792s-0.792 0.354-0.792 0.792h-0.354l0.159 1.018h-1.29l0.147-0.941h-0.367c0-0.438-0.354-0.792-0.792-0.792s-0.792 0.354-0.792 0.792h-0.367l0.147 0.941h-1.277l0.147-0.941h-0.367c0-0.438-0.354-0.792-0.792-0.792s-0.792 0.354-0.792 0.792h-0.367l0.147 0.941h-1.846l0.118-1.882h0.079v-0.364h-0.77l0.229-0.814-0.193-0.055-0.244 0.869h-0.77v0.364h0.079l0.118 1.882h-1.511v-5.737zM12.321 25.978c-1.077 0-1.95-0.874-1.95-1.95s0.874-1.95 1.95-1.95 1.95 0.874 1.95 1.95c0 1.078-0.874 1.95-1.95 1.95zM15.486 24.146c-0.065 0-0.118-0.052-0.118-0.118 0-1.68-1.366-3.046-3.046-3.046-0.065 0-0.118-0.052-0.118-0.118s0.052-0.118 0.118-0.118c1.81 0 3.281 1.472 3.281 3.281 0.001 0.066-0.052 0.119-0.117 0.119zM26.902 19.195h-20.367v-0.814h20.367v0.814zM33.234 16.564h-4.51v-6.477h4.51v6.477zM34.034 15.184v-5.097h0.869l2.729 5.097h-3.597zM36.834 25.978c-1.077 0-1.95-0.874-1.95-1.95s0.874-1.95 1.95-1.95c1.077 0 1.95 0.874 1.95 1.95 0 1.078-0.872 1.95-1.95 1.95zM39.999 24.146c-0.065 0-0.118-0.052-0.118-0.118 0-1.68-1.366-3.046-3.046-3.046-0.065 0-0.118-0.052-0.118-0.118s0.052-0.118 0.118-0.118c1.81 0 3.281 1.472 3.281 3.281 0.001 0.066-0.052 0.119-0.117 0.119z"></path><path d="M12.321 22.438c-0.065 0-0.118 0.052-0.118 0.118s0.052 0.118 0.118 0.118c0.747 0 1.355 0.608 1.355 1.355 0 0.065 0.052 0.118 0.118 0.118s0.118-0.052 0.118-0.118c0-0.877-0.714-1.591-1.591-1.591z"></path><path d="M36.834 22.438c-0.065 0-0.118 0.052-0.118 0.118s0.052 0.118 0.118 0.118c0.747 0 1.355 0.608 1.355 1.355 0 0.065 0.052 0.118 0.118 0.118 0.065 0 0.118-0.052 0.118-0.118 0-0.877-0.714-1.591-1.591-1.591z"></path></symbol>
        <symbol id="restaurant" viewBox="0 0 32 32"><path d="M31.117 23.855v-11.214h0.435v-2.124h-9.088v13.338h-0.708v-16.029h1.36v-1.876h-14.232v1.876h1.36v16.029h-0.708v-13.338h-9.088v2.124h0.435v11.214h-0.883v2.196h32v-2.196h-0.883zM7.548 15.031v1.581c0 0.269-0.197 0.492-0.455 0.533v4.613h-3.712v-4.613c-0.257-0.041-0.455-0.264-0.455-0.533v-1.796h4.621v0.215zM18.832 17.416h-2.119c-0.044-0.151-0.135-0.283-0.256-0.377l1.584-1.584c0.489 0.509 0.79 1.2 0.79 1.961zM16.177 14.59c0.606 0.037 1.161 0.265 1.604 0.625l-1.604 1.604v-2.229zM15.823 14.59v2.229l-1.604-1.604c0.444-0.36 0.998-0.587 1.604-0.625zM13.958 15.455l1.584 1.584c-0.121 0.095-0.212 0.226-0.256 0.377h-2.119c0-0.762 0.301-1.452 0.79-1.961zM19.161 23.855h-6.322v-4.576h6.322v4.576zM29.073 15.031v1.581c0 0.269-0.197 0.492-0.455 0.533v4.613h-3.712v-4.613c-0.257-0.041-0.455-0.264-0.455-0.533v-1.796h4.621v0.215z"></path><path d="M24.667 16.402v0.21c0 0.18 0.146 0.326 0.326 0.326s0.326-0.146 0.326-0.326v-1.581h-0.651v1.371z"></path><path d="M26.437 16.402v0.21c0 0.18 0.146 0.326 0.326 0.326s0.326-0.146 0.326-0.326v-1.581h-0.651v1.371z"></path><path d="M25.552 16.402v0.21c0 0.18 0.146 0.326 0.326 0.326s0.326-0.146 0.326-0.326v-1.581h-0.652v1.371z"></path><path d="M27.322 16.402v0.21c0 0.18 0.146 0.326 0.326 0.326s0.326-0.146 0.326-0.326v-1.581h-0.652v1.371z"></path><path d="M28.207 16.402v0.21c0 0.18 0.146 0.326 0.326 0.326s0.326-0.146 0.326-0.326v-1.581h-0.651v1.371z"></path><path d="M3.142 16.402v0.21c0 0.18 0.146 0.326 0.326 0.326s0.326-0.146 0.326-0.326v-1.581h-0.651v1.371z"></path><path d="M6.682 16.402v0.21c0 0.18 0.146 0.326 0.326 0.326s0.326-0.146 0.326-0.326v-1.581h-0.651v1.371z"></path><path d="M4.912 16.402v0.21c0 0.18 0.146 0.326 0.326 0.326s0.326-0.146 0.326-0.326v-1.581h-0.651v1.371z"></path><path d="M5.797 16.402v0.21c0 0.18 0.146 0.326 0.326 0.326s0.326-0.146 0.326-0.326v-1.581h-0.652v1.371z"></path><path d="M4.027 16.402v0.21c0 0.18 0.146 0.326 0.326 0.326s0.326-0.146 0.326-0.326v-1.581h-0.652v1.371z"></path></symbol>    
        <symbol id="vector" viewBox="0 0 26 32"><path fill="none" stroke="#D41443" style="stroke: var(--color6, #D41443)" stroke-linejoin="round" stroke-linecap="round" stroke-miterlimit="4" stroke-width="6.4" d="M3.542 3.2l16.825 12.8-16.825 12.8"></path></symbol>
        <symbol id="vector-arrow-white" viewBox="0 0 19 32"><path fill="none" stroke="#fff" style="stroke: var(--color2, #fff)" stroke-linejoin="round" stroke-linecap="round" stroke-miterlimit="4" stroke-width="6.4" d="M3.2 3.2l11.553 12.8-11.553 12.8"></path></symbol>
        <symbol id="close" viewBox="0 0 32 32"><path fill="none" stroke="#fff" style="stroke: var(--color2, #fff)" stroke-linejoin="miter" stroke-linecap="butt" stroke-miterlimit="4" stroke-width="2" d="M2.519 2l26.963 28"></path><path fill="none" stroke="#fff" style="stroke: var(--color2, #fff)" stroke-linejoin="miter" stroke-linecap="butt" stroke-miterlimit="4" stroke-width="2" d="M2 29.481l28-26.963"></path></symbol>
        <symbol id="icon-chevron-right" viewBox="0 0 24 24"><path d="M9.707 18.707l6-6c0.391-0.391 0.391-1.024 0-1.414l-6-6c-0.391-0.391-1.024-0.391-1.414 0s-0.391 1.024 0 1.414l5.293 5.293-5.293 5.293c-0.391 0.391-0.391 1.024 0 1.414s1.024 0.391 1.414 0z"></path></symbol>
        <symbol id="icon-mob-menu" viewBox="0 0 46 32"><path fill="none" stroke="#d41443" style="stroke: var(--color1, #d41443)" stroke-linejoin="miter" stroke-linecap="butt" stroke-miterlimit="4" stroke-width="2.2857" d="M0 2.286h45.714"></path><path fill="none" stroke="#d41443" style="stroke: var(--color1, #d41443)" stroke-linejoin="miter" stroke-linecap="butt" stroke-miterlimit="4" stroke-width="2.2857" d="M0 16h45.714"></path><path fill="none" stroke="#d41443" style="stroke: var(--color1, #d41443)" stroke-linejoin="miter" stroke-linecap="butt" stroke-miterlimit="4" stroke-width="2.2857" d="M0 29.714h45.714"></path></symbol>
        <symbol id="icon-chevron-right" viewBox="0 0 24 24"><path d="M9.707 18.707l6-6c0.391-0.391 0.391-1.024 0-1.414l-6-6c-0.391-0.391-1.024-0.391-1.414 0s-0.391 1.024 0 1.414l5.293 5.293-5.293 5.293c-0.391 0.391-0.391 1.024 0 1.414s1.024 0.391 1.414 0z"></path></symbol>
        <symbol id="icon-read-more" viewBox="0 0 26 32"><path fill="none" stroke-linejoin="round" stroke-linecap="round" stroke-miterlimit="4" stroke-width="6.4" d="M5.171 3.2l14.17 12.8-14.17 12.8"></path></symbol>

    </defs>
</svg>
